# xmcd
#
# Track frame offsets: 
#        150
#        15235
#        31812
#        45995
#        78657
#        102745
#        119195
#        131017
#
# Disc length: 2049 seconds
#
# Revision: 2
# Processed by: cddbd v1.5.2PL0 Copyright (c) Steve Scherf et al.
# Submitted via: ExactAudioCopy v1.3
#
DISCID=6407ff08
DTITLE=Medicine Head - Dark Side Of The Moon
DYEAR=1972
DGENRE=Rock
TTITLE0=Back To The Wall
TTITLE1=In Your Eyes
TTITLE2=Sittin' In The Sun
TTITLE3=On This Road
TTITLE4=You And Me
TTITLE5=Kum On
TTITLE6=Only To Do What Is True
TTITLE7=You Can Make It Here
EXTD=
EXTT0=
EXTT1=
EXTT2=
EXTT3=
EXTT4=
EXTT5=
EXTT6=
EXTT7=
PLAYORDER=
